ply
format ascii 1.0
comment made by Alexander Steffen
comment this file is used for visualization of an
comment SDF map created with Max-Affine functions
element vertex 25
property float32 x
property float32 y
property float32 z
element face 16
property list uint8 int32 vertex_indices
end_header
-1.0000 -1.0000 1.0142
-0.5000 -1.0000 0.7180
0.0000 -1.0000 0.6000
0.5000 -1.0000 0.7180
1.0000 -1.0000 1.0142
-1.0000 -0.5000 0.7180
-0.5000 -0.5000 0.3071
0.0000 -0.5000 0.1000
0.5000 -0.5000 0.3071
1.0000 -0.5000 0.7180
-1.0000 0.0000 0.6000
-0.5000 0.0000 0.1000
0.0000 0.0000 -0.4000
0.5000 0.0000 0.1000
1.0000 0.0000 0.6000
-1.0000 0.5000 0.7180
-0.5000 0.5000 0.3071
0.0000 0.5000 0.1000
0.5000 0.5000 0.3071
1.0000 0.5000 0.7180
-1.0000 1.0000 1.0142
-0.5000 1.0000 0.7180
0.0000 1.0000 0.6000
0.5000 1.0000 0.7180
1.0000 1.0000 1.0142
4 0 1 6 5
4 1 2 7 6
4 2 3 8 7
4 3 4 9 8
4 5 6 11 10
4 6 7 12 11
4 7 8 13 12
4 8 9 14 13
4 10 11 16 15
4 11 12 17 16
4 12 13 18 17
4 13 14 19 18
4 15 16 21 20
4 16 17 22 21
4 17 18 23 22
4 18 19 24 23
